HIERARCHY
ROOT root
{
	OFFSET 0.000000 0.000000 0.000000
	CHANNELS 6 Xposition Yposition Zposition Zrotation Yrotation Xrotation
	JOINT lhip
	{
		OFFSET 0.058581 -0.082280 -0.017664
		CHANNELS 3 Zrotation Yrotation Xrotation
		JOINT lknee
		{
			OFFSET 0.043451 -0.386469 0.008037
			CHANNELS 3 Zrotation Yrotation Xrotation
			JOINT lankle
			{
				OFFSET -0.014790 -0.426874 -0.037428
				CHANNELS 3 Zrotation Yrotation Xrotation
				JOINT ltoe
				{
					OFFSET 0.041054 -0.060286 0.122042
					CHANNELS 3 Zrotation Yrotation Xrotation
					End Site
					{
						OFFSET 0.000000 0.000000 0.000000
					}
				}
			}
		}
	}
	JOINT rhip
	{
		OFFSET -0.060310 -0.090513 -0.013543
		CHANNELS 3 Zrotation Yrotation Xrotation
		JOINT rknee
		{
			OFFSET -0.043257 -0.383688 -0.004843
			CHANNELS 3 Zrotation Yrotation Xrotation
			JOINT rankle
			{
				OFFSET 0.019056 -0.420046 -0.034562
				CHANNELS 3 Zrotation Yrotation Xrotation
				JOINT rtoe
				{
					OFFSET -0.034840 -0.062106 0.130323
					CHANNELS 3 Zrotation Yrotation Xrotation
					End Site
					{
						OFFSET 0.000000 0.000000 0.000000
					}
				}
			}
		}
	}
	JOINT lowerback
	{
		OFFSET 0.004439 0.124404 -0.038385
		CHANNELS 3 Zrotation Yrotation Xrotation
		JOINT upperback
		{
			OFFSET 0.004488 0.137956 0.026820
			CHANNELS 3 Zrotation Yrotation Xrotation
			JOINT chest
			{
				OFFSET -0.002265 0.056032 0.002855
				CHANNELS 3 Zrotation Yrotation Xrotation
				JOINT lowerneck
				{
					OFFSET -0.013390 0.211636 -0.033468
					CHANNELS 3 Zrotation Yrotation Xrotation
					JOINT upperneck
					{
						OFFSET 0.010113 0.088937 0.050410
						CHANNELS 3 Zrotation Yrotation Xrotation
						End Site
						{
							OFFSET 0.000000 0.000000 0.000000
						}
					}
				}
				JOINT lclavicle
				{
					OFFSET 0.071702 0.114000 -0.018898
					CHANNELS 3 Zrotation Yrotation Xrotation
					JOINT lshoulder
					{
						OFFSET 0.122921 0.045205 -0.019046
						CHANNELS 3 Zrotation Yrotation Xrotation
						JOINT lelbow
						{
							OFFSET 0.255332 -0.015649 -0.022946
							CHANNELS 3 Zrotation Yrotation Xrotation
							JOINT lwrist
							{
								OFFSET 0.265709 0.012698 -0.007375
								CHANNELS 3 Zrotation Yrotation Xrotation
								End Site
								{
									OFFSET 0.000000 0.000000 0.000000
								}
							}
						}
					}
				}
				JOINT rclavicle
				{
					OFFSET -0.082954 0.112472 -0.023707
					CHANNELS 3 Zrotation Yrotation Xrotation
					JOINT rshoulder
					{
						OFFSET -0.113228 0.046853 -0.008472
						CHANNELS 3 Zrotation Yrotation Xrotation
						JOINT relbow
						{
							OFFSET -0.260127 -0.014369 -0.031269
							CHANNELS 3 Zrotation Yrotation Xrotation
							JOINT rwrist
							{
								OFFSET -0.269108 0.006794 -0.006027
								CHANNELS 3 Zrotation Yrotation Xrotation
								End Site
								{
									OFFSET 0.000000 0.000000 0.000000
								}
							}
						}
					}
				}
			}
		}
	}
}
MOTION
Frames: 7
Frame Time: 0.033333
-1.809606 0.300343 1.034749 90.540771 -1.616710 87.280390 -0.000024 1.915232 6.211481 -3.786599 -9.153271 1.280507 3.023190 7.645614 -7.735815 0.000000 -0.000000 0.000000 -4.667247 -4.116883 -3.361306 0.231518 -1.823027 17.048158 4.507737 -9.095437 -11.155035 0.000000 -0.000000 0.000000 -1.172269 0.654832 9.934749 -1.136212 -0.699046 -2.649690 -0.884884 -1.136646 1.887770 4.845447 7.542290 -16.192678 0.365597 0.288566 4.959644 -30.273882 2.525376 -2.624945 -53.631510 -9.671226 8.867575 5.025348 -25.021042 5.247100 -1.479670 -4.663298 -5.248171 31.387181 0.724753 -0.408043 53.266928 5.457511 14.202121 -10.874827 16.388808 -7.955838 5.176413 0.827079 -2.762643 
-1.810146 0.301427 1.035010 90.920345 -1.346581 87.276439 0.167148 1.631049 5.982850 -3.708864 -9.138645 1.420878 2.580502 7.684424 -7.568356 0.000000 -0.000000 0.000000 -4.529338 -4.332213 -2.863801 0.239903 -2.139270 16.188912 4.423794 -9.017325 -10.731899 0.000000 -0.000000 0.000000 -1.177093 1.432301 9.112798 -0.884140 -0.222023 -1.891604 -0.483613 -1.499150 2.075451 4.675320 7.302002 -15.359341 0.321315 0.584664 4.772438 -30.331105 1.696242 -1.872474 -54.229203 -9.997516 9.031102 5.823200 -24.521682 4.690021 -1.609678 -5.101023 -5.632394 31.145168 0.835909 -0.426734 53.073763 5.502603 14.193890 -10.728208 16.884652 -7.731122 5.244727 0.801995 -3.532007 
-1.810472 0.302068 1.035677 91.113097 -1.180296 87.420932 0.260463 1.451545 5.658139 -3.687519 -9.162025 1.619286 2.559339 7.683612 -7.538313 0.000000 -0.000000 0.000000 -4.490652 -4.372779 -2.650739 0.429493 -2.228164 15.507745 4.443192 -9.100326 -10.381939 0.000000 -0.000000 0.000000 -1.160303 1.449112 8.959996 -0.799778 -0.022959 -2.270365 -0.302491 -1.197747 2.035855 4.840289 7.046239 -14.835631 0.142024 0.528396 5.282805 -30.240348 2.171012 -2.200828 -54.604839 -9.750117 9.076131 5.584584 -23.939862 5.156522 -1.825141 -4.574974 -5.263547 31.094118 0.489187 -0.523636 53.127768 5.538200 14.324294 -10.564838 17.093435 -7.439666 5.368066 0.860906 -3.353933 
-1.810809 0.303070 1.035882 91.388104 -1.126056 87.336655 0.208091 1.302973 5.569240 -3.608679 -9.271833 1.780579 2.628865 7.598939 -7.516645 0.000000 -0.000000 0.000000 -4.594689 -4.538426 -2.493257 0.519716 -2.320154 15.472101 4.448093 -9.101832 -10.153807 0.000000 -0.000000 0.000000 -1.256221 1.696595 8.840541 -0.668972 -0.031377 -2.098652 -0.069604 -1.131551 1.912011 4.721821 7.368583 -14.620067 0.102292 0.964187 5.838593 -29.939889 2.469821 -1.913514 -54.884381 -9.278233 9.009405 5.599363 -24.206290 5.489530 -2.768410 -4.631220 -5.408548 31.046832 0.584420 -0.306734 52.836837 5.940191 14.242292 -10.234666 17.605713 -7.201593 7.528605 0.938813 -3.233305 
-1.811714 0.303403 1.035656 91.475797 -1.130666 87.137261 0.191557 1.173999 5.629568 -3.651071 -9.224198 1.860523 2.665644 7.633620 -7.421849 0.000000 -0.000000 0.000000 -4.658410 -4.611687 -2.578892 0.446598 -2.429933 15.890646 4.717044 -9.059375 -10.180026 0.000000 -0.000000 0.000000 -1.461494 2.040697 8.689719 -0.515302 0.100565 -1.494091 0.164018 -1.249899 2.005654 4.765634 7.336544 -14.696695 -0.093143 0.983263 5.579124 -29.846762 2.239126 -1.726633 -54.952132 -9.226237 9.026306 5.676568 -24.332430 5.468534 -3.409063 -4.672127 -5.261911 30.854857 0.818753 -0.422742 52.671426 6.238612 14.259910 -9.889115 18.219505 -7.143084 9.415023 1.017756 -3.288754 
-1.812440 0.303879 1.035562 91.653177 -1.266324 86.934115 0.036705 1.200721 5.670055 -3.703120 -9.447147 2.025167 2.767849 7.640144 -7.432328 0.000000 -0.000000 0.000000 -4.833876 -4.615116 -2.739816 0.369969 -2.507412 16.523875 4.782298 -9.038049 -10.351901 0.000000 -0.000000 0.000000 -1.608535 1.868092 9.146093 -0.619296 -0.039751 -1.675128 0.152858 -1.034218 1.924994 4.750877 7.695542 -14.127783 0.252969 1.529177 5.223060 -29.383073 2.424293 -1.571821 -54.852346 -8.527024 8.863642 5.611835 -24.498791 5.820166 -4.078886 -4.570429 -5.449034 30.798666 1.002011 -0.159004 52.691370 6.355742 14.389297 -9.549799 19.692319 -6.584973 10.988704 0.977470 -3.437065 
-1.813733 0.304398 1.035331 91.888565 -1.368614 86.630972 -0.089201 1.189356 5.769828 -3.741927 -9.629604 2.192625 2.765890 7.585190 -7.427358 0.000000 -0.000000 0.000000 -4.925076 -4.673461 -2.755897 0.224111 -2.575283 17.047079 4.599998 -9.348207 -10.607231 0.000000 -0.000000 0.000000 -1.632157 2.100096 9.352788 -0.630578 -0.032470 -1.227638 0.157366 -1.245480 2.156884 4.637373 7.838198 -14.642626 0.291000 1.544461 5.027251 -29.323187 1.884532 -1.512609 -54.494615 -8.340854 8.749662 5.521256 -23.760724 5.835225 -4.031404 -4.728964 -5.331653 30.627441 1.302550 -0.285845 52.749269 6.402135 14.739534 -9.575940 21.607081 -6.091648 10.991947 1.408559 -3.690434 
